<svg width="16" height="16" viewBox="0 0 16 16" fill="none" xmlns="http://www.w3.org/2000/svg">
<path d="M15.5 6.57502C15.575 6.20002 15.275 5.75001 14.9 5.75001L10.625 5.15001L8.675 1.25001C8.6 1.10001 8.525 1.02501 8.375 0.950015C8 0.725015 7.55 0.875015 7.325 1.25001L5.45 5.15001L1.175 5.75001C0.95 5.75001 0.8 5.82502 0.725 5.97502C0.425 6.27501 0.425 6.72501 0.725 7.02501L3.8 10.025L3.05 14.3C3.05 14.45 3.05 14.6 3.125 14.75C3.35 15.125 3.8 15.275 4.175 15.05L8 13.025L11.825 15.05C11.9 15.125 12.05 15.125 12.2 15.125C12.275 15.125 12.275 15.125 12.35 15.125C12.725 15.05 13.025 14.675 12.95 14.225L12.2 9.95002L15.275 6.95002C15.425 6.87501 15.5 6.72502 15.5 6.57502Z" fill="#EE684B"/>
</svg>
